# Blender 5.1.1
# www.blender.org
mtllib box.mtl
o area_light
v -0.884011 5.319334 -2.517968
v -0.884011 5.318497 -3.567968
v 0.415989 5.318497 -3.567968
v 0.415989 5.319334 -2.517968
vn -0.0000 -1.0000 0.0008
s 1
usemtl Light
f 2//1 4//1 1//1
f 2//1 3//1 4//1
o back_wall
v -2.950011 -0.162686 -5.835598
v 2.545989 -0.162686 -5.835598
v 2.545989 5.325313 -5.839967
v -3.014011 5.325313 -5.839967
vn -0.0000 0.0008 1.0000
s 1
usemtl Khaki
f 5//2 7//2 8//2
f 5//2 6//2 7//2
o ceiling
v -3.014011 5.329765 -0.247969
v -3.014011 5.325313 -5.839970
v 2.545989 5.325313 -5.839970
v 2.545989 5.329765 -0.247969
vn -0.0000 -1.0000 0.0008
s 1
usemtl Khaki
f 10//3 12//3 9//3
f 10//3 11//3 12//3
o floor
v -2.982011 -0.158233 -0.243599
v 2.545989 -0.158233 -0.243599
v 2.545989 -0.162686 -5.835598
v -2.950011 -0.162686 -5.835598
vn -0.0000 1.0000 -0.0008
s 1
usemtl Khaki
f 14//4 16//4 13//4
f 14//4 15//4 16//4
o left_wall
v -2.982011 -0.158233 -0.243599
v -2.950011 -0.162686 -5.835598
v -3.014011 5.325313 -5.839970
v -3.014011 5.329765 -0.247969
vn 1.0000 0.0087 0.0028
vn 1.0000 0.0088 0.0029
vn 1.0000 0.0058 -0.0000
vn 0.9999 0.0117 0.0057
s 1
usemtl BloodyRed
f 17//5 19//6 20//7
f 17//5 18//8 19//6
o right_wall
v 2.545989 -0.162686 -5.835598
v 2.545989 -0.158233 -0.243599
v 2.545989 5.329765 -0.247969
v 2.545989 5.325313 -5.839970
vn -1.0000 -0.0000 -0.0000
s 1
usemtl DarkGreen
f 22//9 24//9 21//9
f 22//9 23//9 24//9
o front_wall
v -3.451513 5.550581 -0.284402
v 2.978807 5.550581 -0.284402
v 2.978807 -0.541097 -0.280033
v -3.526393 -0.541097 -0.280033
vn -0.0000 -0.0007 -1.0000
s 1
usemtl Khaki.001
f 25//10 27//10 28//10
f 25//10 26//10 27//10
